{
	"asset":{
		"generator":"Khronos glTF Blender I/O v4.2.69",
		"version":"2.0"
	},
	"scene":0,
	"scenes":[
		{
			"extras":{
				"keentools_gt_settings":{},
				"keentools_fb_settings":{},
				"qremesher":{
					"target_count":100
				},
				"blosm":{
					"defaultLevels":[
						{
							"levels":4,
							"weight":10
						},
						{
							"levels":5,
							"weight":40
						},
						{
							"levels":6,
							"weight":10
						}
					]
				},
				"uuid":"c8196145-6fd5-4c9d-9941-eb149acba94d",
				"assets reported":{}
			},
			"name":"Scene",
			"nodes":[
				0
			]
		}
	],
	"nodes":[
		{
			"mesh":0,
			"name":"Retopo_Cube.001",
			"scale":[
				5.201428413391113,
				5.201428413391113,
				5.201428413391113
			]
		}
	],
	"materials":[
		{
			"doubleSided":true,
			"name":"Material.010"
		}
	],
	"meshes":[
		{
			"name":"mesh.001",
			"primitives":[
				{
					"attributes":{
						"POSITION":0,
						"NORMAL":1,
						"TEXCOORD_0":2,
						"TANGENT":3
					},
					"indices":4,
					"material":0
				}
			]
		}
	],
	"accessors":[
		{
			"bufferView":0,
			"componentType":5126,
			"count":22267,
			"max":[
				0.5114483833312988,
				3.3635778427124023,
				0.7032697200775146
			],
			"min":[
				-0.5003350973129272,
				2.394437074661255,
				-0.4610627293586731
			],
			"type":"VEC3"
		},
		{
			"bufferView":1,
			"componentType":5126,
			"count":22267,
			"type":"VEC3"
		},
		{
			"bufferView":2,
			"componentType":5126,
			"count":22267,
			"type":"VEC2"
		},
		{
			"bufferView":3,
			"componentType":5126,
			"count":22267,
			"type":"VEC4"
		},
		{
			"bufferView":4,
			"componentType":5123,
			"count":125424,
			"type":"SCALAR"
		}
	],
	"bufferViews":[
		{
			"buffer":0,
			"byteLength":267204,
			"byteOffset":0,
			"target":34962
		},
		{
			"buffer":0,
			"byteLength":267204,
			"byteOffset":267204,
			"target":34962
		},
		{
			"buffer":0,
			"byteLength":178136,
			"byteOffset":534408,
			"target":34962
		},
		{
			"buffer":0,
			"byteLength":356272,
			"byteOffset":712544,
			"target":34962
		},
		{
			"buffer":0,
			"byteLength":250848,
			"byteOffset":1068816,
			"target":34963
		}
	],
	"buffers":[
		{
			"byteLength":1319664,
			"uri":"Panda.bin"
		}
	]
}
