<svg width="103" height="107" viewBox="0 0 103 107" fill="none" xmlns="http://www.w3.org/2000/svg">
<g clip-path="url(#clip0_24_85)">
<path d="M51.5 9.61328C58.4069 9.61328 62.9165 9.6307 65.0288 9.66553C67.1411 9.70036 69.5719 9.78744 72.3213 9.92676C74.8024 10.0661 76.7806 10.3273 78.2559 10.7104C79.7311 11.0936 80.9382 11.4593 81.877 11.8076C83.084 12.2952 84.1401 12.8525 85.0454 13.4795C85.9507 14.1064 86.8727 14.8727 87.8115 15.7783C88.6833 16.6839 89.4209 17.6244 90.0244 18.5996C90.6279 19.5749 91.1644 20.6895 91.6338 21.9434C91.9691 22.849 92.3211 24.068 92.6899 25.6006C93.0588 27.1331 93.3102 29.223 93.4443 31.8701C93.5114 34.6566 93.5785 37.1644 93.6455 39.3936C93.7126 41.6227 93.7461 46.3249 93.7461 53.5C93.7461 60.6055 93.7126 65.2728 93.6455 67.502C93.5785 69.7311 93.5114 72.2389 93.4443 75.0254C93.3102 77.6725 93.0588 79.7624 92.6899 81.2949C92.3211 82.8275 91.9691 84.0465 91.6338 84.9521C91.1644 86.2061 90.6279 87.3206 90.0244 88.2959C89.4209 89.2712 88.6833 90.2116 87.8115 91.1172C86.8727 92.0924 85.9507 92.8936 85.0454 93.5205C84.1401 94.1475 83.084 94.7048 81.877 95.1924C80.9382 95.5407 79.7311 95.9064 78.2559 96.2896C76.7806 96.6727 74.8024 96.8991 72.3213 96.9688C69.5719 97.1081 67.1411 97.1951 65.0288 97.23C62.9165 97.2648 58.4069 97.2822 51.5 97.2822C44.6602 97.2822 40.1673 97.2648 38.0215 97.23C35.8757 97.1951 33.4281 97.1081 30.6787 96.9688C28.1976 96.8991 26.2194 96.6727 24.7441 96.2896C23.2689 95.9064 22.0619 95.5407 21.123 95.1924C19.9831 94.7048 18.9437 94.1475 18.0049 93.5205C17.0661 92.8936 16.1608 92.0924 15.2891 91.1172C14.3503 90.2116 13.5791 89.2712 12.9756 88.2959C12.3721 87.3206 11.8356 86.2409 11.3662 85.0566C11.0309 84.0814 10.6789 82.8275 10.3101 81.2949C9.94124 79.7624 9.72331 77.7074 9.65625 75.1299C9.52214 72.2738 9.43831 69.7311 9.40479 67.502C9.37126 65.2728 9.35449 60.6055 9.35449 53.5C9.35449 46.3249 9.37126 41.6227 9.40479 39.3936C9.43831 37.1644 9.52214 34.6566 9.65625 31.8701C9.72331 29.2926 9.94124 27.2376 10.3101 25.7051C10.6789 24.1725 11.0309 22.9186 11.3662 21.9434C11.8356 20.6895 12.3721 19.5923 12.9756 18.6519C13.5791 17.7114 14.3167 16.7536 15.1885 15.7783C16.1273 14.8727 17.0493 14.1064 17.9546 13.4795C18.8599 12.8525 19.916 12.2952 21.123 11.8076C22.0619 11.4593 23.2689 11.0936 24.7441 10.7104C26.2194 10.3273 28.1976 10.0661 30.6787 9.92676C33.4281 9.78744 35.8589 9.70036 37.9712 9.66553C40.0835 9.6307 44.5931 9.61328 51.5 9.61328ZM51.5 0C44.526 0 39.9326 0.0174179 37.7197 0.0522461C35.5068 0.0870743 33.0257 0.174156 30.2764 0.313477C27.527 0.452797 25.1632 0.731445 23.1851 1.14941C21.2069 1.56738 19.4131 2.12467 17.8037 2.82129C16.0602 3.51791 14.4508 4.35384 12.9756 5.3291C11.5003 6.30436 10.0586 7.52344 8.65039 8.98633C7.24219 10.4492 6.06869 11.9469 5.12988 13.4795C4.19108 15.012 3.38639 16.6839 2.71582 18.4951C2.04525 20.167 1.50879 22.0304 1.10645 24.0854C0.704102 26.1405 0.435872 28.596 0.301758 31.4521C0.167643 34.3083 0.0838216 36.8857 0.050293 39.1846C0.0167643 41.4834 0 46.2552 0 53.5C0 60.7448 0.0167643 65.5166 0.050293 67.8154C0.0838216 70.1143 0.167643 72.6917 0.301758 75.5479C0.435872 78.404 0.704102 80.8595 1.10645 82.9146C1.50879 84.9696 2.04525 86.833 2.71582 88.5049C3.38639 90.3161 4.19108 91.988 5.12988 93.5205C6.06869 95.0531 7.24219 96.5508 8.65039 98.0137C10.0586 99.4766 11.5003 100.696 12.9756 101.671C14.4508 102.646 16.0602 103.482 17.8037 104.179C19.4131 104.806 21.2069 105.346 23.1851 105.798C25.1632 106.251 27.527 106.547 30.2764 106.687C33.0257 106.826 35.5068 106.913 37.7197 106.948C39.9326 106.983 44.526 107 51.5 107C58.474 107 63.0674 106.983 65.2803 106.948C67.4932 106.913 69.9743 106.826 72.7236 106.687C75.473 106.547 77.8368 106.251 79.8149 105.798C81.7931 105.346 83.5869 104.806 85.1963 104.179C86.8727 103.482 88.4486 102.646 89.9238 101.671C91.3991 100.696 92.8744 99.4766 94.3496 98.0137C95.7578 96.5508 96.9313 95.0531 97.8701 93.5205C98.8089 91.988 99.6136 90.3161 100.284 88.5049C100.888 86.833 101.407 84.9696 101.843 82.9146C102.279 80.8595 102.531 78.404 102.598 75.5479C102.732 72.6917 102.816 70.1143 102.849 67.8154C102.883 65.5166 102.899 60.7448 102.899 53.5C102.899 46.2552 102.883 41.4834 102.849 39.1846C102.816 36.8857 102.732 34.3083 102.598 31.4521C102.531 28.596 102.279 26.1405 101.843 24.0854C101.407 22.0304 100.888 20.167 100.284 18.4951C99.6136 16.7536 98.8089 15.0991 97.8701 13.5317C96.9313 11.9644 95.7578 10.4492 94.3496 8.98633C92.9414 7.52344 91.4997 6.30436 90.0244 5.3291C88.5492 4.35384 86.9398 3.51791 85.1963 2.82129C83.5869 2.19434 81.7931 1.65446 79.8149 1.20166C77.8368 0.748863 75.473 0.452797 72.7236 0.313477C69.9743 0.174156 67.4932 0.0870743 65.2803 0.0522461C63.0674 0.0174179 58.474 0 51.5 0ZM51.5 26.0186C47.8789 26.0186 44.459 26.75 41.2402 28.2129C38.0215 29.6061 35.2051 31.5566 32.791 34.0645C30.377 36.5723 28.4994 39.498 27.1582 42.8418C25.75 46.1855 25.0459 49.7383 25.0459 53.5C25.0459 57.2617 25.75 60.8145 27.1582 64.1582C28.4994 67.502 30.377 70.4277 32.791 72.9355C35.2051 75.4434 38.0215 77.3939 41.2402 78.7871C44.459 80.25 47.8789 80.9814 51.5 80.9814C55.1211 80.9814 58.541 80.25 61.7598 78.7871C64.9785 77.3939 67.7949 75.4434 70.209 72.9355C72.6231 70.4277 74.5007 67.502 75.8418 64.1582C77.25 60.8145 77.9541 57.2617 77.9541 53.5C77.9541 49.7383 77.25 46.1855 75.8418 42.8418C74.5007 39.498 72.6231 36.5723 70.209 34.0645C67.7949 31.5566 64.9785 29.6061 61.7598 28.2129C58.541 26.75 55.1211 26.0186 51.5 26.0186ZM51.5 71.3682C46.7389 71.3682 42.682 69.6266 39.3291 66.1436C35.9762 62.6605 34.2998 58.446 34.2998 53.5C34.2998 48.554 35.9762 44.3395 39.3291 40.8564C42.682 37.3734 46.7389 35.6318 51.5 35.6318C56.2611 35.6318 60.318 37.3734 63.6709 40.8564C67.0238 44.3395 68.7002 48.554 68.7002 53.5C68.7002 58.446 67.0238 62.6605 63.6709 66.1436C60.318 69.6266 56.2611 71.3682 51.5 71.3682ZM85.1963 24.9736C85.1963 26.7152 84.5928 28.2129 83.3857 29.4668C82.1787 30.7207 80.7035 31.3477 78.96 31.3477C77.2835 31.3477 75.8418 30.7207 74.6348 29.4668C73.4277 28.2129 72.8242 26.7152 72.8242 24.9736C72.8242 23.1624 73.4277 21.6299 74.6348 20.376C75.8418 19.1221 77.2835 18.4951 78.96 18.4951C80.7035 18.4951 82.1787 19.1221 83.3857 20.376C84.5928 21.6299 85.1963 23.1624 85.1963 24.9736Z" fill="url(#paint0_linear_24_85)"/>
</g>
<defs>
<linearGradient id="paint0_linear_24_85" x1="82.9722" y1="107" x2="1.6673" y2="-1.25226" gradientUnits="userSpaceOnUse">
<stop stop-color="#FFA800"/>
<stop offset="0.388369" stop-color="#AD0086"/>
<stop offset="0.679" stop-color="#62009F"/>
<stop offset="1" stop-color="#0F00BB"/>
</linearGradient>
<clipPath id="clip0_24_85">
<rect width="103" height="107" fill="white" transform="matrix(1 0 0 -1 0 107)"/>
</clipPath>
</defs>
</svg>
