<svg width="109" height="115" viewBox="0 0 109 115" fill="none" xmlns="http://www.w3.org/2000/svg">
<rect width="109" height="115" rx="24" transform="matrix(1 0 0 -1 0 115)" fill="#0A66C2"/>
<path d="M46.2819 42.759H61.833V51.1444H62.0966C63.1509 49.1172 64.9813 47.2128 67.5878 45.4313C70.1943 43.6498 73.4598 42.759 77.3842 42.759C81.5429 42.759 84.8815 43.404 87.4002 44.6941C89.9188 45.9227 91.881 47.6428 93.2868 49.8544C94.6925 52.0659 95.659 54.6768 96.1861 57.6869C96.6547 60.6971 96.889 63.9529 96.889 67.4545V95.8359H80.635V70.6797C80.635 67.6695 80.2689 64.6287 79.5367 61.5571C78.8046 58.4855 76.3591 56.9497 72.2004 56.9497C67.9832 56.9497 65.3181 58.3166 64.2052 61.0503C63.0923 63.784 62.5359 66.8402 62.5359 70.219V95.8359H46.2819V42.759ZM18.1668 42.759H35.0358V95.8359H18.1668V42.759ZM35.0358 28.0154C35.0358 30.4727 34.2158 32.5614 32.5758 34.2815C30.9357 36.0015 28.9442 36.8616 26.6013 36.8616C24.2584 36.8616 22.2669 36.0015 20.6268 34.2815C18.9868 32.5614 18.1668 30.4727 18.1668 28.0154C18.1668 25.5582 18.9868 23.4695 20.6268 21.7494C22.2669 20.0293 24.2584 19.1693 26.6013 19.1693C28.9442 19.1693 30.9357 20.0293 32.5758 21.7494C34.2158 23.4695 35.0358 25.5582 35.0358 28.0154Z" fill="white"/>
</svg>
