<svg width="24" height="24" viewBox="0 0 24 24" fill="none" xmlns="http://www.w3.org/2000/svg">
<path d="M11.0475 3.44695C10.6575 2.66745 9.8425 2.03695 8.8415 2.14845C7.946 2.24795 6.6165 2.58095 5.71 3.67295C4.7795 4.79445 4.4325 6.54345 5.147 9.16395C5.91 11.9594 7.043 14.7154 8.4515 16.9389C9.8495 19.1465 11.5715 20.9135 13.547 21.591C15.294 22.1899 16.63 21.9399 17.6045 21.2819C18.5445 20.6474 19.0605 19.6929 19.3275 19.0319C19.6265 18.292 19.4295 17.5215 19.0395 16.9535L17.601 14.8615C17.2832 14.3992 16.8257 14.0509 16.2955 13.8676C15.7654 13.6843 15.1904 13.6757 14.655 13.843L12.667 14.4645C12.6042 14.4858 12.5365 14.4884 12.4723 14.4718C12.408 14.4552 12.3501 14.4201 12.3055 14.371C11.4205 13.3345 10.429 11.889 10.1595 10.426C10.1509 10.3869 10.1567 10.346 10.176 10.311C10.4685 9.81945 10.972 9.26245 11.4725 8.77495C12.321 7.94895 12.6425 6.63595 12.0825 5.51695L11.0475 3.44695Z" fill="white"/>
</svg>
